<svg width="204" height="53" viewBox="0 0 204 53" fill="none" xmlns="http://www.w3.org/2000/svg">
<path d="M201.061 15.125H2.93899C1.31583 15.125 0 16.3172 0 17.7878V50.3372C0 51.8078 1.31583 53 2.93899 53H201.061C202.684 53 204 51.8078 204 50.3372V17.7878C204 16.3172 202.684 15.125 201.061 15.125Z" fill="white"/>
<path d="M60.0564 40.2841C60.2542 40.287 60.4431 40.3669 60.583 40.5068C60.7229 40.6468 60.8028 40.8357 60.8057 41.0336V43.0073C60.8028 43.2052 60.7229 43.3941 60.583 43.534C60.4431 43.674 60.2542 43.7538 60.0564 43.7568H47.8896C47.6914 43.7544 47.5019 43.6748 47.3615 43.5348C47.2211 43.3948 47.1409 43.2056 47.138 43.0073V25.059C47.1398 24.8604 47.2196 24.6705 47.3602 24.5302C47.5009 24.39 47.691 24.3107 47.8896 24.3096H50.1398C50.338 24.3113 50.5275 24.3909 50.6677 24.531C50.8078 24.6712 50.8873 24.8608 50.8891 25.059V40.2841H60.0564Z" fill="#00A3FE"/>
<path d="M72.6102 24.3096C72.7322 24.2977 72.8553 24.3116 72.9716 24.3504C73.0879 24.3892 73.1947 24.4519 73.2852 24.5346C73.46 24.7456 73.5901 24.9898 73.6678 25.2526L80.4723 42.807C80.4914 42.8705 80.5005 42.9366 80.4993 43.0028C80.4976 43.201 80.4181 43.3906 80.2779 43.5308C80.1378 43.671 79.9482 43.7505 79.75 43.7523H77.7586C77.6207 43.7686 77.481 43.7571 77.3476 43.7185C77.2143 43.6798 77.09 43.6148 76.9823 43.5272C76.8514 43.3989 76.7474 43.2459 76.6763 43.0771L75.4814 39.9938H66.7057L65.5108 43.0771C65.4397 43.2459 65.3356 43.3989 65.2048 43.5272C65.097 43.6147 64.9727 43.6796 64.8394 43.7183C64.7061 43.7569 64.5664 43.7685 64.4285 43.7523H62.4281C62.2299 43.7505 62.0403 43.671 61.9002 43.5308C61.76 43.3906 61.6805 43.201 61.6787 43.0028C61.6776 42.9366 61.6867 42.8705 61.7057 42.807L68.5103 25.2526C68.5914 24.9933 68.7238 24.753 68.8996 24.5459C68.9901 24.4632 69.097 24.4004 69.2132 24.3617C69.3295 24.3229 69.4527 24.309 69.5747 24.3208L72.6102 24.3096ZM74.138 36.5054L71.0845 28.5879L68.0288 36.5054H74.138Z" fill="#00A3FE"/>
<path d="M97.6391 24.3096C97.8374 24.3107 98.0273 24.3901 98.1676 24.5304C98.3079 24.6707 98.3872 24.8606 98.3884 25.059V36.4491C98.4034 37.5078 98.2344 38.5609 97.8888 39.5617C97.5734 40.4605 97.0605 41.2772 96.388 41.9518C95.679 42.6445 94.8252 43.171 93.888 43.4934C91.6247 44.2135 89.1937 44.2135 86.9304 43.4934C86.0029 43.166 85.1581 42.6399 84.4552 41.9518C83.7852 41.2782 83.2773 40.4608 82.9701 39.5617C82.6336 38.559 82.4693 37.5067 82.484 36.4491V25.059C82.4858 24.8608 82.5653 24.6712 82.7055 24.531C82.8456 24.3909 83.0352 24.3113 83.2333 24.3096H85.4835C85.6819 24.3107 85.8718 24.3901 86.0121 24.5304C86.1524 24.6707 86.2317 24.8606 86.2328 25.059V36.3119C86.2166 36.9732 86.3203 37.632 86.5389 38.2564C86.7195 38.7571 87.0146 39.2087 87.4007 39.5752C87.781 39.9244 88.2369 40.1809 88.7328 40.3246C89.2835 40.4827 89.8544 40.5585 90.4272 40.5497C91.0051 40.558 91.5812 40.4822 92.1374 40.3246C92.6397 40.1837 93.1021 39.927 93.4875 39.5752C93.8749 39.2072 94.1741 38.7563 94.3628 38.2564C94.5907 37.6341 94.6991 36.9744 94.6823 36.3119V25.059C94.6841 24.8608 94.7636 24.6712 94.9037 24.531C95.0439 24.3909 95.2334 24.3113 95.4316 24.3096H97.6391Z" fill="#00A3FE"/>
<path d="M115.195 43.7567C115.064 43.7657 114.933 43.7482 114.808 43.7052C114.684 43.6623 114.57 43.5949 114.473 43.5069C114.306 43.3404 114.185 43.2098 114.11 43.1176L106.336 31.5541V43.0005C106.333 43.1988 106.253 43.388 106.113 43.528C105.972 43.668 105.783 43.7476 105.584 43.75H103.334C103.136 43.7476 102.947 43.668 102.806 43.528C102.666 43.388 102.586 43.1988 102.583 43.0005V25.059C102.584 24.8604 102.664 24.6704 102.805 24.5302C102.946 24.39 103.136 24.3107 103.334 24.3095H105.278C105.409 24.3006 105.541 24.3181 105.665 24.361C105.789 24.4039 105.903 24.4714 106.001 24.5594C106.128 24.6825 106.248 24.8124 106.361 24.9487L114.14 36.5054V25.059C114.139 24.9601 114.158 24.8621 114.197 24.7711C114.236 24.6801 114.293 24.5981 114.365 24.5301C114.433 24.4586 114.515 24.4018 114.606 24.3631C114.697 24.3244 114.795 24.3046 114.893 24.305H117.144C117.342 24.3068 117.531 24.3863 117.672 24.5265C117.812 24.6667 117.891 24.8563 117.893 25.0545V43.0028C117.89 43.2006 117.81 43.3896 117.67 43.5295C117.53 43.6694 117.342 43.7493 117.144 43.7522L115.195 43.7567Z" fill="#00A3FE"/>
<path d="M129.833 24.3096C131.045 24.2849 132.253 24.4675 133.404 24.8497C134.349 25.1729 135.212 25.7 135.931 26.3936C136.617 27.0768 137.148 27.9006 137.485 28.8084C137.862 29.8256 138.082 30.894 138.138 31.9772C138.212 33.3468 138.212 34.7194 138.138 36.089C138.082 37.1715 137.862 38.2392 137.485 39.2556C137.15 40.1619 136.624 40.986 135.944 41.6727C135.242 42.3622 134.397 42.8885 133.469 43.2143C132.348 43.5974 131.168 43.7809 129.983 43.7567H122.983C122.884 43.7576 122.787 43.7381 122.696 43.6994C122.605 43.6606 122.524 43.6035 122.456 43.5317C122.385 43.464 122.328 43.3823 122.289 43.2917C122.251 43.2011 122.231 43.1035 122.231 43.005V25.059C122.233 24.8608 122.313 24.6712 122.453 24.531C122.593 24.3908 122.783 24.3113 122.981 24.3096H129.833ZM134.389 31.9772C134.357 31.4114 134.24 30.8536 134.04 30.3231C133.851 29.8231 133.558 29.369 133.181 28.9907C132.775 28.5895 132.287 28.2822 131.75 28.0905C131.089 27.8631 130.394 27.7549 129.695 27.7709H125.971V40.2729H129.833C130.504 40.288 131.173 40.1797 131.806 39.9533C132.325 39.7628 132.799 39.4645 133.194 39.0778C133.569 38.7 133.858 38.2455 134.04 37.7455C134.239 37.2099 134.356 36.6479 134.389 36.0778C134.463 34.7119 134.463 33.3431 134.389 31.9772Z" fill="#00A3FE"/>
<path d="M149.695 24.3096C152.008 24.3096 153.767 24.8467 154.972 25.921C156.176 26.9952 156.776 28.4859 156.772 30.3929C156.808 31.6125 156.484 32.8157 155.84 33.852C155.181 34.8369 154.221 35.5822 153.104 35.9765L156.929 42.8408C156.98 42.9345 157.008 43.0383 157.013 43.1446C157.011 43.3064 156.946 43.4611 156.831 43.5755C156.717 43.6899 156.562 43.755 156.401 43.7568H154.04C153.743 43.781 153.448 43.6863 153.221 43.4934C153.07 43.3527 152.944 43.1885 152.845 43.0073L149.207 36.5324H145.512V43.0073C145.509 43.2052 145.429 43.3941 145.289 43.534C145.149 43.674 144.96 43.7538 144.763 43.7568H142.512C142.314 43.7544 142.125 43.6748 141.984 43.5348C141.844 43.3948 141.764 43.2056 141.761 43.0073V25.059C141.763 24.8604 141.842 24.6705 141.983 24.5302C142.124 24.39 142.314 24.3107 142.512 24.3096H149.695ZM145.528 33.0598H149.555C150.606 33.0598 151.448 32.8745 152.082 32.5039C152.717 32.1333 153.032 31.4296 153.027 30.3929C153.027 29.3546 152.712 28.6599 152.082 28.3088C151.452 27.9577 150.61 27.7822 149.555 27.7822H145.528V33.0598Z" fill="#00A3FE"/>
<path d="M174.445 24.3096C174.643 24.3113 174.833 24.3909 174.973 24.531C175.113 24.6712 175.192 24.8608 175.194 25.059C175.195 25.1453 175.177 25.2308 175.14 25.3088L168.556 36.8948V43.0073C168.553 43.2052 168.473 43.3941 168.333 43.534C168.193 43.674 168.005 43.7539 167.807 43.7568H165.584C165.385 43.755 165.196 43.6755 165.056 43.5353C164.915 43.3951 164.836 43.2055 164.834 43.0073V36.8948L158.25 25.3088C158.212 25.2313 158.192 25.1456 158.194 25.059C158.196 24.8604 158.275 24.6705 158.416 24.5302C158.557 24.39 158.747 24.3107 158.945 24.3096H161.027C161.177 24.298 161.329 24.3166 161.472 24.3641C161.615 24.4116 161.748 24.4872 161.862 24.5864C161.995 24.7055 162.108 24.8463 162.195 25.0027L166.695 32.8662L171.196 25.0027C171.281 24.8452 171.394 24.7042 171.529 24.5864C171.642 24.4868 171.774 24.411 171.917 24.3635C172.06 24.3159 172.211 24.2976 172.361 24.3096H174.445Z" fill="#00A3FE"/>
<path d="M34.0152 3.49957C34.2429 2.53221 34.7646 1.70711 35.5805 1.02426C36.3963 0.341422 37.2881 0 38.2557 0C39.2233 0 39.9538 0.341422 40.4471 1.02426C40.8076 1.51743 40.9878 2.05801 40.9878 2.64602C40.9878 2.87363 40.9499 3.15815 40.874 3.49957C40.5894 4.50487 40.0676 5.32049 39.3087 5.94642C38.4739 6.62927 37.5727 6.97069 36.605 6.97069C35.6564 6.97069 34.9259 6.61978 34.4136 5.91797C34.0721 5.46274 33.9013 4.9601 33.9013 4.41003C33.9013 4.14448 33.9393 3.84099 34.0152 3.49957ZM32.2222 44.6693C28.2568 44.6693 26.2741 43.2467 26.2741 40.4015C26.2741 39.8515 26.35 39.2445 26.5018 38.5806L32.2507 13.6569L38.2557 11.0962H38.5403L32.1937 38.5806C32.004 39.4152 32.3645 39.8325 33.2752 39.8325H35.4666L35.4097 40.117L32.2222 44.6693Z" fill="#016EB9"/>
</svg>
