<svg width="560" height="306" viewBox="0 0 560 306" fill="none" xmlns="http://www.w3.org/2000/svg">
<g clip-path="url(#clip0_118_9416)">
<path d="M277.745 280.199H209.561L206.179 245.444H281.13L277.745 280.199Z" fill="#00A3FE"/>
<path d="M283.802 241.607H203.078V249.956H283.802V241.607Z" fill="#016EB9"/>
<path d="M277.745 291.459H209.561L206.179 256.704H281.13L277.745 291.459Z" fill="#00A3FE"/>
<path d="M283.802 252.866H203.078V261.215H283.802V252.866Z" fill="#016EB9"/>
<path d="M277.745 303.003H209.561L206.179 268.248H281.13L277.745 303.003Z" fill="#00A3FE"/>
<path d="M283.802 264.41H203.078V272.759H283.802V264.41Z" fill="#016EB9"/>
<path d="M229.092 178.802H124.568V303.074H229.092V178.802Z" fill="#B8C1C9"/>
<path d="M252.722 178.802H162.087V303.074H252.722V178.802Z" fill="#D5D6DA"/>
<path d="M252.722 194.387H162.087V194.996H252.722V194.387Z" fill="#657285"/>
<path d="M252.722 286.88H162.087V288.051H252.722V286.88Z" fill="#657285"/>
<path d="M237.499 191.937C240.281 191.937 242.537 189.68 242.537 186.897C242.537 184.114 240.281 181.857 237.499 181.857C234.717 181.857 232.462 184.114 232.462 186.897C232.462 189.68 234.717 191.937 237.499 191.937Z" fill="#657285"/>
<path d="M182.864 181.861H169.429C167.421 181.861 165.794 183.489 165.794 185.497V188.3C165.794 190.308 167.421 191.937 169.429 191.937H182.864C184.872 191.937 186.499 190.308 186.499 188.3V185.497C186.499 183.489 184.872 181.861 182.864 181.861Z" fill="#657285"/>
<path d="M226.76 183.375H213.999C213.144 183.375 212.451 184.068 212.451 184.923V189.709C212.451 190.564 213.144 191.257 213.999 191.257H226.76C227.615 191.257 228.308 190.564 228.308 189.709V184.923C228.308 184.068 227.615 183.375 226.76 183.375Z" fill="#657285"/>
<path d="M213.501 273.803C231.693 273.803 246.44 258.197 246.44 238.946C246.44 219.695 231.693 204.089 213.501 204.089C195.31 204.089 180.562 219.695 180.562 238.946C180.562 258.197 195.31 273.803 213.501 273.803Z" fill="#657285"/>
<path d="M208.128 273.803C225.414 273.803 239.427 258.197 239.427 238.946C239.427 219.695 225.414 204.089 208.128 204.089C190.842 204.089 176.829 219.695 176.829 238.946C176.829 258.197 190.842 273.803 208.128 273.803Z" fill="#00A3FE"/>
<path d="M233.367 238.946C233.376 242.805 232.66 246.631 231.254 250.224C227.354 260.134 218.468 267.055 208.128 267.055C194.192 267.055 182.892 254.473 182.892 238.937C182.892 227.421 189.109 217.527 198.004 213.186C201.154 211.635 204.617 210.829 208.128 210.828C222.063 210.838 233.367 223.423 233.367 238.946Z" fill="#D5D6DA"/>
<path d="M136.718 178.802H32.1943V303.074H136.718V178.802Z" fill="#B8C1C9"/>
<path d="M160.349 178.802H69.7139V303.074H160.349V178.802Z" fill="#D5D6DA"/>
<path d="M160.349 194.387H69.7139V194.996H160.349V194.387Z" fill="#657285"/>
<path d="M160.349 286.88H69.7139V288.051H160.349V286.88Z" fill="#657285"/>
<path d="M145.122 191.937C147.904 191.937 150.16 189.68 150.16 186.897C150.16 184.114 147.904 181.857 145.122 181.857C142.34 181.857 140.085 184.114 140.085 186.897C140.085 189.68 142.34 191.937 145.122 191.937Z" fill="#657285"/>
<path d="M90.4871 181.861H77.0521C75.0445 181.861 73.417 183.489 73.417 185.497V188.3C73.417 190.308 75.0445 191.937 77.0521 191.937H90.4871C92.4948 191.937 94.1223 190.308 94.1223 188.3V185.497C94.1223 183.489 92.4948 181.861 90.4871 181.861Z" fill="#657285"/>
<path d="M134.387 183.375H121.625C120.771 183.375 120.078 184.068 120.078 184.923V189.709C120.078 190.564 120.771 191.257 121.625 191.257H134.387C135.242 191.257 135.934 190.564 135.934 189.709V184.923C135.934 184.068 135.242 183.375 134.387 183.375Z" fill="#657285"/>
<path d="M121.124 273.803C139.316 273.803 154.063 258.197 154.063 238.946C154.063 219.695 139.316 204.089 121.124 204.089C102.933 204.089 88.1855 219.695 88.1855 238.946C88.1855 258.197 102.933 273.803 121.124 273.803Z" fill="#657285"/>
<path d="M115.754 273.803C133.04 273.803 147.053 258.197 147.053 238.946C147.053 219.695 133.04 204.089 115.754 204.089C98.468 204.089 84.4551 219.695 84.4551 238.946C84.4551 258.197 98.468 273.803 115.754 273.803Z" fill="#00A3FE"/>
<path d="M140.993 238.946C141.003 242.805 140.285 246.632 138.877 250.224C134.977 260.134 126.091 267.055 115.754 267.055C101.815 267.055 90.5146 254.473 90.5146 238.937C90.5146 227.421 96.7318 217.527 105.63 213.186C108.78 211.635 112.243 210.829 115.754 210.828C129.692 210.838 140.993 223.423 140.993 238.946Z" fill="#D5D6DA"/>
<path d="M369.075 303.596H364.01V256.123C364.01 238.118 353.58 223.472 340.757 223.472C327.933 223.472 317.497 238.118 317.497 256.123V303.596H312.42V256.123C312.42 234.185 325.129 216.341 340.754 216.341C356.379 216.341 369.075 234.188 369.075 256.123V303.596Z" fill="#364154"/>
<path d="M504.969 248.12C503.57 248.12 502.434 246.526 502.434 244.558V155.612C502.434 153.644 503.57 152.049 504.969 152.049C506.368 152.049 507.508 153.644 507.508 155.612V244.545C507.52 246.526 506.384 248.12 504.969 248.12Z" fill="#364154"/>
<path d="M358.34 248.12C356.937 248.12 355.801 246.526 355.801 244.558V155.612C355.801 153.644 356.937 152.049 358.34 152.049C359.742 152.049 360.878 153.644 360.878 155.612V244.545C360.878 246.526 359.742 248.12 358.34 248.12Z" fill="#364154"/>
<path d="M525.69 159.175H344.155C342.64 159.175 341.412 160.403 341.412 161.918V231.116C341.412 232.632 342.64 233.86 344.155 233.86H525.69C527.205 233.86 528.433 232.632 528.433 231.116V161.918C528.433 160.403 527.205 159.175 525.69 159.175Z" fill="#B8C1C9"/>
<path d="M522.432 159.175H340.896C339.381 159.175 338.153 160.403 338.153 161.918V231.116C338.153 232.632 339.381 233.86 340.896 233.86H522.432C523.946 233.86 525.174 232.632 525.174 231.116V161.918C525.174 160.403 523.946 159.175 522.432 159.175Z" fill="#D5D6DA"/>
<path d="M519.485 249.019H319.073C317.315 249.019 315.892 247.023 315.892 244.557C315.892 242.085 317.315 240.093 319.073 240.093H519.485V249.019Z" fill="#D5D6DA"/>
<path d="M522.15 303.596H517.072V256.123C517.072 238.118 506.64 223.472 493.816 223.472C480.993 223.472 470.563 238.118 470.563 256.123V303.596H465.485V256.123C465.485 234.185 478.195 216.341 493.816 216.341C509.438 216.341 522.15 234.188 522.15 256.123V303.596Z" fill="#364154"/>
<path d="M423.238 153.474C422.312 152.161 421.147 149.766 420.054 145.307C420.184 145.746 421.864 151.308 424.563 154.178C434.474 158.64 454.809 175.582 455.062 179.367C455.062 179.367 459.485 168.12 459.581 168.043C459.581 168.043 468.494 152.043 453.95 146.009C446.556 142.94 445.747 137.623 445.302 132.963C444.858 128.303 439.567 108.775 426.91 116.123C426.91 116.123 424.591 115.505 423.646 115.814C424.099 115.829 424.541 115.959 424.931 116.191C423.353 116.346 421.135 116.809 419.439 118.178C414.933 121.765 414.523 147.689 423.238 153.474Z" fill="#131F2D"/>
<path d="M424.927 149.75C424.927 149.75 422.197 160.84 422.092 164.826C422.064 166.099 421.231 169.3 419.995 173.116C417.367 181.236 412.907 192.159 410.421 193.324C409.108 193.942 407.799 194.56 406.647 194.959C404.599 195.682 403.033 195.771 402.786 194.171C402.397 191.668 408.256 159.187 410.572 155.856C412.889 152.525 424.927 149.75 424.927 149.75Z" fill="#00A3FE"/>
<path d="M420.104 286.373C420.365 286.661 420.538 287.018 420.602 287.401C420.667 287.784 420.62 288.178 420.468 288.536C419.943 289.982 418.213 291.598 416.206 293.211C415.95 293.418 415.721 293.609 415.52 293.783L415.369 293.922L415.252 294.027C413.377 295.754 414.081 296.149 410.715 299.656C406.879 303.652 404.229 303.723 403.484 303.364C402.848 303.055 404.142 300.936 405.572 298.553L405.782 298.207L406.35 297.252C408.028 294.385 407.586 293.041 407.2 288.777C406.869 285.332 401.813 269.428 401.813 269.428L409.167 268.161C409.167 268.161 411.382 280.83 413.822 282.77C415.128 283.808 416.601 283.821 417.837 284.59L418.099 284.757C418.836 285.204 419.511 285.747 420.104 286.373Z" fill="#FF7955"/>
<path d="M420.104 286.373C420.365 286.661 420.538 287.018 420.603 287.401C420.667 287.784 420.621 288.178 420.468 288.536C419.826 289.979 418.14 291.589 416.2 293.199C415.947 293.409 415.721 293.6 415.521 293.783L415.369 293.922L415.252 294.027C413.377 295.754 414.081 296.149 410.715 299.656C406.879 303.652 404.229 303.723 403.485 303.364C402.849 303.055 404.143 300.936 405.573 298.553C408.257 297.507 410.617 295.768 412.414 293.514C414.724 290.563 416.265 286.772 417.837 284.575L418.1 284.742C418.838 285.193 419.512 285.742 420.104 286.373Z" fill="#131F2D"/>
<path d="M360.78 282.115C360.326 284.386 357.074 284.006 353.476 283.123C349.877 282.239 350.721 283.289 345.575 282.721C340.43 282.152 338.87 280.23 338.712 279.464C338.573 278.787 341.115 278.537 343.843 278.228C344.185 278.191 344.528 278.148 344.874 278.105C347.963 277.718 350.208 275.731 353.003 274.088C355.653 272.543 359.606 266.242 359.606 266.242L366.66 266.802C366.66 266.802 362.954 272.428 361.527 274.873C360.684 276.312 360.73 278.216 360.835 279.683C360.925 280.493 360.906 281.311 360.78 282.115Z" fill="#FF7955"/>
<path d="M353.476 283.122C349.859 282.239 350.721 283.289 345.575 282.721C340.43 282.152 338.87 280.23 338.712 279.464C338.573 278.787 341.115 278.537 343.843 278.228L343.867 278.281C346.071 279.697 348.618 280.489 351.236 280.573C354.726 280.657 358.423 279.646 360.835 279.696C360.923 280.5 360.905 281.313 360.78 282.112C360.326 284.386 357.089 284.006 353.476 283.122Z" fill="#131F2D"/>
<path d="M387.819 236.975L403.027 277.916C404.566 278.03 406.112 277.888 407.604 277.496C409.664 276.902 412.027 275.333 412.027 275.333C412.027 275.333 408.253 236.02 401.338 227.841C394.423 219.662 387.819 236.975 387.819 236.975Z" fill="#131F2D"/>
<path d="M447.968 220.413C447.968 220.413 404.272 205.631 394.537 208.777C384.802 211.922 355.529 270.16 355.529 270.16C355.529 270.16 356.19 271.041 358 271.705C359.677 272.323 363.735 272.292 363.735 272.292C363.735 272.292 390.142 249.65 393.283 243.043C396.424 236.437 397.684 230.149 400.828 230.777C403.972 231.404 441.383 246.189 449.871 237.383C458.358 228.577 456.137 217.135 456.137 217.135L447.968 220.413Z" fill="#364154"/>
<path d="M433.437 155.068C430.32 156.703 425.407 155.445 425.45 155.417C425.962 155.025 425.592 152.664 425.033 150.214C424.999 150.059 424.965 149.905 424.928 149.75C424.276 146.969 423.445 144.241 423.445 144.241L433.044 140.033L433.625 139.798C433.674 140.024 433.724 140.244 433.773 140.456C435.441 147.538 437.479 148.799 438.384 149.763C439.629 151.088 436.368 153.529 433.437 155.068Z" fill="#FF7955"/>
<path d="M433.764 140.441C432.705 143.839 430.475 147.974 424.857 149.454C424.205 146.673 423.445 144.241 423.445 144.241L433.044 140.033L433.625 139.798C433.668 140.004 433.715 140.218 433.764 140.441Z" fill="#EF6343"/>
<path d="M434.348 138.293C434.348 138.293 436.538 133.204 436.609 129.141C436.661 126.239 433.56 116.009 423.294 119.188C421.227 119.82 419.327 120.908 417.735 122.371C415.699 124.277 412.938 128.127 418.071 136.671L419.52 139.6L434.348 138.293Z" fill="#131F2D"/>
<path d="M419.995 173.11C417.367 181.23 412.907 192.153 410.421 193.318C409.108 193.936 407.798 194.554 406.646 194.952C406.955 188.464 419.309 170.87 419.309 170.87L419.995 173.11Z" fill="#016EB9"/>
<path d="M422.416 146.206C422.416 146.206 435.654 144.322 434.353 136.09C433.053 127.859 433.884 122.077 425.378 122.933C416.873 123.789 415.73 127.188 415.495 130.04C415.26 132.892 418.942 146.484 422.416 146.206Z" fill="#FF7955"/>
<path d="M419.334 123.69C419.334 123.69 424.486 132.765 430.258 133.309C436.03 133.853 438.202 131.983 438.202 131.983C437.863 128.399 437.138 124.863 436.04 121.435C436.04 121.435 421.329 118.663 419.334 123.69Z" fill="#131F2D"/>
<path d="M420.344 124.33C420.344 124.33 417.988 126.916 417.663 129.116C417.339 131.316 417.731 135.676 416.449 135.729C416.449 135.729 412.681 129.604 415.152 125.405C417.781 120.95 420.344 124.33 420.344 124.33Z" fill="#131F2D"/>
<path d="M458.503 218.439C458.503 218.63 458.503 218.819 458.503 218.998C458.495 219.558 458.398 220.113 458.215 220.642C457.579 222.409 455.788 223.018 453.342 222.897C453.014 222.882 452.675 222.851 452.323 222.811C446.674 222.153 438.279 218.358 432.229 215.732C423.007 211.734 418.816 215.491 415.881 212.951C415.552 212.676 415.313 212.308 415.196 211.894C415.166 211.798 415.141 211.7 415.122 211.601C414.519 208.341 418.448 200.95 413.784 178.468C411.931 169.557 424.928 149.757 424.928 149.757C424.928 149.757 426.228 155.365 437.572 148.953C437.643 148.913 440.66 155.624 444.92 163.683C449.602 172.566 454.089 183.301 452.767 188.831C451.31 194.956 454.089 202.736 456.267 209.32C457.434 212.843 458.429 216.032 458.503 218.439Z" fill="#00A3FE"/>
<path d="M458.503 218.439C458.503 218.63 458.503 218.819 458.503 218.998C458.495 219.558 458.398 220.113 458.216 220.642C457.579 222.409 455.788 223.018 453.342 222.898C453.015 222.882 452.675 222.851 452.323 222.811C446.674 222.153 438.279 218.358 432.229 215.732C423.007 211.734 418.949 215.405 415.801 213.149C414.93 212.531 415.131 210.921 415.011 210.504C420.048 207.723 432.553 209.979 426.747 197.665C423.794 191.387 438.647 173.564 442.693 180.381C448.805 189.357 453.54 183.341 451.819 188.927C449.945 195.014 453.432 202.727 456.251 209.321C457.434 212.843 458.429 216.032 458.503 218.439Z" fill="#016EB9"/>
<path d="M402.799 194.164L411.583 211.242L429.122 210.411L420.802 192.175L402.799 194.164Z" fill="#131F2D"/>
<path d="M399.29 198.45C399.29 198.45 397.314 204.052 397.913 206.574C398.364 208.465 401.619 208.613 405.545 209.095C407.123 209.404 408.405 209.521 408.405 209.521L399.29 198.45Z" fill="#016EB9"/>
<path d="M393.685 187.864L402.799 194.165L411.582 211.242L401.474 205.77L393.685 187.864Z" fill="#131F2D"/>
<path d="M395.164 188.887L396.273 187.864L403.42 192.817L402.799 194.165L395.164 188.887Z" fill="#CCBCB2"/>
<path d="M402.799 194.164L403.42 192.817L419.328 191.013V192.338L402.799 194.164Z" fill="#EFE5DF"/>
<path d="M419.328 191.013L420.233 192.236L419.328 192.338V191.013Z" fill="#CCBCB2"/>
<path d="M429.221 204.967C429.221 204.967 427.139 202.05 424.427 201.787C421.715 201.525 419.936 202.909 419.794 203.743C419.652 204.577 420.338 207.241 422.237 208.026C424.137 208.811 430.129 209.07 430.129 209.07L429.221 204.967Z" fill="#FF7955"/>
<path d="M397.904 204.781C397.904 204.781 399.414 201.945 401.675 201.729C403.935 201.512 405.554 202.906 405.739 203.728C405.924 204.55 405.653 207.358 404.04 207.902C396.597 210.414 397.904 204.781 397.904 204.781Z" fill="#FF7955"/>
<path d="M437.572 148.947C437.572 148.947 446.761 149.994 450.544 155.257C455.853 162.672 465.023 204.856 458.988 209.07C451.885 214.036 428.298 209.552 428.298 209.552C428.298 209.552 428.112 206.771 429.224 204.967C430.336 203.162 448.944 201.568 449.784 200.712C450.624 199.856 439.358 172.171 439.358 169.655C439.358 167.14 437.572 148.947 437.572 148.947Z" fill="#00A3FE"/>
<path d="M148.742 142.931C148.742 142.931 148.236 133.284 139.27 133.791C130.304 134.298 124.38 140.391 118.29 136.498C112.199 132.605 94.1221 147.164 94.1221 147.164L148.742 142.931Z" fill="#131F2D"/>
<path d="M76.332 145.808C76.332 145.808 74.9793 132.904 81.7462 133.773C88.5131 134.641 91.441 142.424 94.1218 137.172C96.8026 131.919 108.897 134.023 112.177 139.764C115.457 145.505 76.332 145.808 76.332 145.808Z" fill="#131F2D"/>
<path d="M87.7808 141.914C87.1335 140.377 87.0184 138.667 87.4537 137.056C87.8891 135.445 88.8499 134.026 90.1837 133.025C92.7255 131.137 96.6232 129.555 102.343 130.179C114.75 131.535 132.456 136.498 136.178 135.595C139.899 134.693 134.488 141.914 134.488 141.914H87.7808Z" fill="#364154"/>
<path d="M146.268 178.801H78.0831L74.7012 144.046H149.653L146.268 178.801Z" fill="#00A3FE"/>
<path d="M152.325 140.209H71.6006V148.558H152.325V140.209Z" fill="#016EB9"/>
<path d="M86.398 140.209C86.398 140.209 81.5769 141.874 80.8573 145.218C80.8573 145.218 74.9706 146.213 76.4562 139.77C77.9417 133.328 86.398 140.209 86.398 140.209Z" fill="#131F2D"/>
<path d="M559.086 302.919H0.914195C0.409299 302.919 0 303.329 0 303.834V305.085C0 305.591 0.409299 306 0.914195 306H559.086C559.591 306 560 305.591 560 305.085V303.834C560 303.329 559.591 302.919 559.086 302.919Z" fill="#131F2D"/>
<path d="M214.11 149.068H207.708V178.802H214.11V149.068Z" fill="#131F2D"/>
<path d="M212.473 178.799H229.83V149.065H212.473V178.799Z" fill="#364154"/>
<path d="M228.731 158.093H214.188V161.143H228.731V158.093Z" fill="#D5D6DA"/>
<path d="M245.486 161.736L239.902 152.979C239.454 152.277 238.836 151.699 238.106 151.298C237.375 150.897 236.556 150.687 235.723 150.687H233.379C232.659 150.685 231.947 150.841 231.293 151.144C230.64 151.446 230.06 151.888 229.595 152.439L226.507 156.103V176.645C226.507 177.218 226.735 177.768 227.14 178.174C227.545 178.58 228.095 178.808 228.669 178.808H244.059C244.632 178.808 245.182 178.58 245.587 178.174C245.993 177.768 246.221 177.218 246.221 176.645V164.208C246.216 163.331 245.961 162.473 245.486 161.736ZM242.524 163.244L242.277 163.479C242.169 163.581 242.041 163.658 241.901 163.705C241.76 163.752 241.611 163.768 241.464 163.751C241.317 163.735 241.176 163.686 241.049 163.609C240.923 163.532 240.815 163.429 240.732 163.306L237.335 158.217C237.186 157.996 237.13 157.727 237.177 157.465C237.225 157.203 237.373 156.971 237.59 156.817C237.807 156.664 238.075 156.601 238.338 156.643C238.6 156.685 238.836 156.829 238.994 157.042L242.632 161.897C242.779 162.094 242.848 162.339 242.829 162.584C242.809 162.83 242.7 163.06 242.524 163.231V163.244Z" fill="#00A3FE"/>
<path d="M228.105 150.341L225.622 152.825L230.885 158.091L233.368 155.606L228.105 150.341Z" fill="#00A3FE"/>
<path d="M225.311 151.579L226.855 150.035C227.069 149.82 227.36 149.7 227.663 149.7C227.966 149.7 228.257 149.82 228.471 150.035L229.587 151.151L226.427 154.313L225.302 153.187C225.092 152.972 224.975 152.683 224.976 152.382C224.978 152.08 225.098 151.792 225.311 151.579Z" fill="#D5D6DA"/>
<path d="M238.837 162.465H226.492V173.212H238.837V162.465Z" fill="#016EB9"/>
<path d="M415.966 23H144.034C141.806 23 140 24.6368 140 26.6559V71.3441C140 73.3632 141.806 75 144.034 75H415.966C418.194 75 420 73.3632 420 71.3441V26.6559C420 24.6368 418.194 23 415.966 23Z" fill="white"/>
<path d="M222.43 57.5419C222.702 57.5459 222.961 57.6556 223.153 57.8477C223.345 58.0398 223.455 58.2992 223.459 58.5708V61.2807C223.455 61.5523 223.345 61.8117 223.153 62.0038C222.961 62.1959 222.702 62.3056 222.43 62.3096H205.731C205.459 62.3064 205.199 62.1971 205.006 62.0049C204.813 61.8127 204.703 61.5529 204.699 61.2807V36.6388C204.702 36.3661 204.811 36.1054 205.004 35.9128C205.197 35.7203 205.458 35.6115 205.731 35.6099H208.819C209.091 35.6123 209.351 35.7215 209.544 35.9139C209.736 36.1063 209.845 36.3667 209.848 36.6388V57.5419H222.43Z" fill="#00A3FE"/>
<path d="M239.661 35.6099C239.829 35.5936 239.998 35.6127 240.157 35.6659C240.317 35.7192 240.464 35.8053 240.588 35.9189C240.828 36.2085 241.006 36.5438 241.113 36.9045L250.452 61.0057C250.479 61.0929 250.491 61.1835 250.49 61.2745C250.487 61.5467 250.378 61.807 250.186 61.9994C249.993 62.1918 249.733 62.301 249.461 62.3034H246.728C246.539 62.3259 246.347 62.3101 246.164 62.257C245.981 62.204 245.81 62.1147 245.662 61.9945C245.483 61.8184 245.34 61.6083 245.242 61.3765L243.602 57.1433H231.557L229.917 61.3765C229.819 61.6083 229.677 61.8184 229.497 61.9945C229.349 62.1145 229.179 62.2037 228.996 62.2568C228.813 62.3099 228.621 62.3257 228.432 62.3034H225.686C225.414 62.301 225.154 62.1918 224.961 61.9994C224.769 61.807 224.66 61.5467 224.657 61.2745C224.656 61.1835 224.668 61.0929 224.694 61.0057L234.034 36.9045C234.145 36.5486 234.327 36.2186 234.568 35.9343C234.693 35.8208 234.839 35.7346 234.999 35.6814C235.158 35.6282 235.327 35.6091 235.495 35.6253L239.661 35.6099ZM241.758 52.354L237.567 41.4838L233.373 52.354H241.758Z" fill="#00A3FE"/>
<path d="M274.014 35.6099C274.286 35.6115 274.547 35.7204 274.74 35.913C274.932 36.1056 275.041 36.3664 275.043 36.6388V52.2767C275.063 53.7302 274.831 55.1761 274.357 56.5501C273.924 57.7841 273.22 58.9054 272.297 59.8315C271.324 60.7825 270.152 61.5055 268.866 61.9481C265.759 62.9367 262.423 62.9367 259.316 61.9481C258.043 61.4986 256.883 60.7762 255.919 59.8315C254.999 58.9067 254.302 57.7845 253.88 56.5501C253.418 55.1735 253.193 53.7286 253.213 52.2767V36.6388C253.216 36.3667 253.325 36.1063 253.517 35.9139C253.709 35.7215 253.97 35.6123 254.242 35.6099H257.33C257.602 35.6115 257.863 35.7204 258.056 35.913C258.248 36.1056 258.357 36.3664 258.359 36.6388V52.0883C258.336 52.9962 258.479 53.9007 258.779 54.7579C259.027 55.4454 259.432 56.0655 259.962 56.5686C260.484 57.048 261.109 57.4002 261.79 57.5975C262.546 57.8145 263.329 57.9186 264.116 57.9065C264.909 57.9179 265.7 57.8138 266.463 57.5975C267.152 57.404 267.787 57.0516 268.316 56.5686C268.848 56.0634 269.258 55.4444 269.517 54.7579C269.83 53.9036 269.979 52.9978 269.956 52.0883V36.6388C269.958 36.3667 270.067 36.1063 270.26 35.9139C270.452 35.7215 270.712 35.6123 270.984 35.6099H274.014Z" fill="#00A3FE"/>
<path d="M298.111 62.3094C297.931 62.3217 297.751 62.2977 297.58 62.2388C297.41 62.1798 297.253 62.0872 297.119 61.9665C296.891 61.7378 296.724 61.5586 296.622 61.4319L285.951 45.5561V61.2712C285.947 61.5434 285.837 61.8033 285.645 61.9955C285.452 62.1877 285.192 62.297 284.92 62.3002H281.831C281.559 62.297 281.299 62.1877 281.107 61.9955C280.914 61.8033 280.804 61.5434 280.8 61.2712V36.6386C280.802 36.366 280.912 36.1052 281.105 35.9127C281.298 35.7201 281.559 35.6113 281.831 35.6097H284.5C284.68 35.5974 284.86 35.6215 285.03 35.6804C285.201 35.7393 285.357 35.8319 285.491 35.9527C285.666 36.1217 285.831 36.3002 285.985 36.4872L296.662 52.3538V36.6386C296.661 36.5029 296.688 36.3683 296.741 36.2434C296.794 36.1185 296.873 36.0058 296.971 35.9125C297.065 35.8144 297.177 35.7363 297.302 35.6832C297.427 35.6301 297.561 35.603 297.697 35.6035H300.785C301.057 35.6059 301.318 35.7151 301.51 35.9076C301.702 36.1 301.812 36.3603 301.814 36.6325V61.2743C301.81 61.546 301.7 61.8054 301.508 61.9975C301.316 62.1896 301.057 62.2993 300.785 62.3033L298.111 62.3094Z" fill="#00A3FE"/>
<path d="M318.202 35.61C319.866 35.5761 321.523 35.8269 323.103 36.3515C324.4 36.7953 325.584 37.5189 326.571 38.4712C327.514 39.4092 328.242 40.5403 328.705 41.7867C329.222 43.1831 329.524 44.65 329.601 46.1372C329.703 48.0176 329.703 49.9021 329.601 51.7825C329.524 53.2686 329.222 54.7344 328.705 56.1299C328.244 57.3742 327.523 58.5056 326.59 59.4485C325.627 60.3951 324.467 61.1177 323.193 61.565C321.654 62.0909 320.034 62.3429 318.408 62.3097H308.8C308.665 62.3109 308.531 62.2841 308.406 62.2309C308.282 62.1778 308.17 62.0994 308.077 62.0007C307.979 61.9077 307.901 61.7956 307.848 61.6712C307.795 61.5469 307.768 61.4129 307.769 61.2777V36.6389C307.771 36.3668 307.88 36.1064 308.072 35.914C308.265 35.7216 308.525 35.6124 308.797 35.61H318.202ZM324.456 46.1372C324.412 45.3603 324.251 44.5945 323.977 43.8662C323.718 43.1797 323.316 42.5562 322.797 42.0369C322.241 41.486 321.57 41.0641 320.833 40.801C319.926 40.4888 318.972 40.3403 318.013 40.3622H312.902V57.5266H318.202C319.124 57.5474 320.042 57.3986 320.91 57.0878C321.623 56.8263 322.273 56.4167 322.816 55.8858C323.33 55.3671 323.726 54.7431 323.977 54.0566C324.249 53.3214 324.411 52.5497 324.456 51.767C324.557 49.8918 324.557 48.0124 324.456 46.1372Z" fill="#00A3FE"/>
<path d="M345.463 35.6099C348.638 35.6099 351.052 36.3473 352.706 37.8222C354.359 39.2971 355.183 41.3437 355.177 43.9618C355.227 45.6363 354.782 47.2883 353.898 48.711C352.993 50.0632 351.676 51.0865 350.142 51.6279L355.393 61.052C355.462 61.1807 355.501 61.3233 355.507 61.4692C355.505 61.6913 355.415 61.9037 355.258 62.0608C355.101 62.2179 354.889 62.3072 354.667 62.3096H351.427C351.019 62.3429 350.615 62.2128 350.303 61.9481C350.096 61.7548 349.922 61.5294 349.787 61.2807L344.793 52.3911H339.722V61.2807C339.718 61.5523 339.608 61.8117 339.416 62.0038C339.224 62.1959 338.965 62.3056 338.693 62.3096H335.605C335.333 62.3064 335.073 62.1971 334.88 62.0049C334.687 61.8127 334.577 61.5529 334.573 61.2807V36.6388C334.576 36.3661 334.685 36.1054 334.878 35.9128C335.071 35.7203 335.332 35.6115 335.605 35.6099H345.463ZM339.743 47.6234H345.272C346.713 47.6234 347.869 47.369 348.74 46.8602C349.611 46.3514 350.044 45.3852 350.037 43.9618C350.037 42.5364 349.605 41.5826 348.74 41.1006C347.875 40.6186 346.719 40.3776 345.272 40.3776H339.743V47.6234Z" fill="#00A3FE"/>
<path d="M379.434 35.6099C379.706 35.6123 379.966 35.7215 380.159 35.9139C380.351 36.1064 380.46 36.3667 380.463 36.6388C380.464 36.7573 380.439 36.8746 380.389 36.9818L371.352 52.8885V61.2807C371.348 61.5523 371.238 61.8117 371.046 62.0038C370.854 62.1959 370.595 62.3056 370.323 62.3096H367.272C367 62.3072 366.739 62.198 366.547 62.0056C366.355 61.8131 366.246 61.5528 366.243 61.2807V52.8885L357.206 36.9818C357.153 36.8753 357.127 36.7577 357.129 36.6388C357.131 36.3661 357.241 36.1054 357.434 35.9128C357.627 35.7203 357.888 35.6115 358.161 35.6099H361.017C361.224 35.594 361.432 35.6195 361.629 35.6847C361.825 35.75 362.007 35.8537 362.163 35.9899C362.347 36.1535 362.501 36.3467 362.62 36.5616L368.797 47.3576L374.974 36.5616C375.091 36.3453 375.246 36.1517 375.431 35.9899C375.587 35.8532 375.768 35.7492 375.964 35.6839C376.161 35.6186 376.368 35.5934 376.574 35.6099H379.434Z" fill="#00A3FE"/>
<path d="M186.688 7.03906C187 5.71094 187.716 4.57812 188.836 3.64062C189.956 2.70312 191.18 2.23438 192.508 2.23438C193.836 2.23438 194.839 2.70312 195.516 3.64062C196.01 4.31771 196.258 5.0599 196.258 5.86719C196.258 6.17969 196.206 6.57031 196.102 7.03906C195.711 8.41927 194.995 9.53906 193.953 10.3984C192.807 11.3359 191.57 11.8047 190.242 11.8047C188.94 11.8047 187.938 11.3229 187.234 10.3594C186.766 9.73438 186.531 9.04427 186.531 8.28906C186.531 7.92448 186.583 7.50781 186.688 7.03906ZM184.227 63.5625C178.784 63.5625 176.062 61.6094 176.062 57.7031C176.062 56.9479 176.167 56.1146 176.375 55.2031L184.266 20.9844L192.508 17.4688H192.898L184.188 55.2031C183.927 56.349 184.422 56.9219 185.672 56.9219H188.68L188.602 57.3125L184.227 63.5625Z" fill="#016EB9"/>
</g>
<defs>
<clipPath id="clip0_118_9416">
<rect width="560" height="306" fill="white"/>
</clipPath>
</defs>
</svg>
